# xmcd CD database file
#
# Track frame offsets:
#	150
#	31950
#	47532
#	72302
#	89694
#	103359
#	120825
#	141601
#	162094
#	178691
#
# Disc length: 2662 seconds
#
# Revision: 2
# Processed by: cddbd v1.5.1PL0 Copyright (c) Steve Scherf et al.
# Submitted via: CDex 1.51
#
DISCID=8b0a640a
DTITLE=Pilgrim - Search for the Dreamchild
DYEAR=1995
DGENRE=New Age
TTITLE0=From Angels to Lovers
TTITLE1=Agnus Dei
TTITLE2=Barefoot Angel
TTITLE3=Bound to Desire
TTITLE4=devotion
TTITLE5=Stay
TTITLE6=Eternal Dance
TTITLE7=Conquest
TTITLE8=Seduction
TTITLE9=Longing
EXTD=YEAR: 1995
EXTT0=
EXTT1=
EXTT2=
EXTT3=
EXTT4=
EXTT5=
EXTT6=
EXTT7=
EXTT8=
EXTT9=
PLAYORDER=
